<svg width="130" height="40" viewBox="0 0 130 40" fill="none" xmlns="http://www.w3.org/2000/svg">
<g clip-path="url(#clip0_2985_1991)">
<path d="M42.2578 17.2388V5.83292H46.0031L49.1788 14.421H49.2651L52.3723 5.83292H55.9451V17.2376H53.581L53.7369 8.35535H53.5467L50.0945 17.2376H48.0234L44.6231 8.35535H44.4329L44.5888 17.2376H42.259L42.2578 17.2388Z" fill="#1a1a2e"/>
<path d="M65.1339 15.15V17.24H57.8359V5.83411H60.317V15.15H65.1339Z" fill="#1a1a2e"/>
<path d="M70.721 17.481C69.8928 17.481 69.1508 17.351 68.4939 17.0923C67.8382 16.8335 67.277 16.4531 66.8115 15.9522C66.3448 15.4512 65.988 14.8345 65.7411 14.1032C65.493 13.3719 65.3701 12.533 65.3701 11.589C65.3701 10.241 65.6064 9.12685 66.0778 8.24547C66.5492 7.3641 67.1967 6.70248 68.019 6.25825C68.8413 5.8152 69.7711 5.59308 70.806 5.59308C71.6118 5.59308 72.3431 5.72304 72.9988 5.98178C73.6546 6.24053 74.2158 6.62096 74.6812 7.1219C75.1467 7.62284 75.5071 8.24547 75.7599 8.98862C76.0128 9.73176 76.1392 10.5812 76.1392 11.5382C76.1392 12.4952 76.0128 13.3754 75.7599 14.1126C75.5071 14.8499 75.1408 15.469 74.6635 15.9699C74.1862 16.4708 73.6132 16.8489 72.9469 17.1017C72.2793 17.3546 71.5362 17.4822 70.7198 17.4822L70.721 17.481ZM70.7907 15.4926C71.4003 15.4926 71.9119 15.3437 72.3266 15.0436C72.7401 14.7447 73.0567 14.3123 73.2753 13.7476C73.4939 13.1828 73.6038 12.4917 73.6038 11.6741C73.6038 10.8565 73.4915 10.0956 73.267 9.49664C73.0426 8.89764 72.7177 8.44041 72.2911 8.1226C71.8658 7.80597 71.3472 7.64765 70.7375 7.64765C70.1279 7.64765 69.6293 7.80006 69.2099 8.10488C68.7905 8.4097 68.4679 8.85157 68.2434 9.42694C68.019 10.0023 67.9067 10.7171 67.9067 11.5701C67.9067 12.1927 67.9729 12.748 68.1052 13.2372C68.2375 13.7275 68.4242 14.1386 68.6664 14.473C68.9086 14.8073 69.2075 15.0602 69.5643 15.2338C69.9211 15.4075 70.3299 15.4926 70.7895 15.4926H70.7907Z" fill="#1a1a2e"/>
<path d="M77.5586 20.1416V8.16631H79.612L79.6297 10.6887L79.9404 10.7065C80.0444 10.0956 80.2252 9.58289 80.4839 9.16819C80.7426 8.7535 81.0794 8.44277 81.4941 8.23484C81.9076 8.02808 82.3861 7.92411 82.9272 7.92411C83.7329 7.92411 84.4229 8.1226 84.9983 8.52075C85.5737 8.91772 86.0143 9.47656 86.3192 10.1973C86.624 10.9179 86.7764 11.7674 86.7764 12.7457C86.7764 13.6554 86.6382 14.4659 86.3629 15.1736C86.0864 15.8825 85.6753 16.4437 85.1282 16.8584C84.5812 17.2731 83.8995 17.481 83.0831 17.481C82.5078 17.481 82.021 17.3711 81.624 17.1525C81.227 16.934 80.8998 16.6256 80.6399 16.2286C80.3811 15.8305 80.1649 15.3555 79.9924 14.8038H79.6651C79.7337 15.1145 79.7975 15.4323 79.8554 15.7537C79.9133 16.0762 79.9593 16.3905 79.9936 16.6953C80.0279 17.0001 80.0456 17.2967 80.0456 17.585V20.1428H77.5598L77.5586 20.1416ZM82.2183 15.4926C82.633 15.4926 82.9839 15.378 83.271 15.1476C83.5581 14.9172 83.7802 14.5947 83.9362 14.18C84.0921 13.7653 84.1689 13.2927 84.1689 12.7634C84.1689 12.188 84.0886 11.6953 83.9267 11.2854C83.766 10.8766 83.5356 10.5576 83.2367 10.3272C82.9366 10.0968 82.5798 9.98104 82.1663 9.98104C81.7977 9.98104 81.4811 10.0626 81.2176 10.2232C80.9529 10.3851 80.7308 10.5978 80.5524 10.8624C80.374 11.1271 80.2441 11.413 80.1637 11.7178C80.0834 12.0226 80.0432 12.3133 80.0432 12.5897V12.9182C80.0432 13.1367 80.0716 13.3648 80.1295 13.6011C80.1874 13.8373 80.2795 14.0677 80.4059 14.2922C80.5323 14.5167 80.6824 14.7187 80.8549 14.8971C81.0274 15.0755 81.2282 15.2197 81.4586 15.3295C81.6878 15.4394 81.9418 15.4938 82.2171 15.4938L82.2183 15.4926Z" fill="#1a1a2e"/>
<path d="M91.7128 17.481C91.1032 17.481 90.5503 17.4231 90.0552 17.3085C89.5602 17.1939 89.1349 17.0261 88.7781 16.8075C88.4213 16.589 88.133 16.3267 87.9156 16.0207C87.697 15.7159 87.5529 15.3721 87.4844 14.9928L89.383 14.2154C89.4291 14.4682 89.5555 14.7045 89.7622 14.9231C89.969 15.1417 90.249 15.3177 90.5987 15.45C90.9496 15.5824 91.3726 15.6485 91.8676 15.6485C92.3969 15.6485 92.8057 15.5706 93.0928 15.4158C93.3799 15.2598 93.524 15.0389 93.524 14.7506C93.524 14.532 93.4437 14.3596 93.283 14.232C93.1212 14.1055 92.886 13.9957 92.5753 13.9035C92.2646 13.8114 91.8901 13.7251 91.4529 13.6436C91.0276 13.5408 90.5928 13.4309 90.1498 13.3151C89.7067 13.2005 89.2979 13.0387 88.9246 12.8307C88.5501 12.624 88.2452 12.3499 88.0101 12.0096C87.7738 11.6705 87.6557 11.2346 87.6557 10.7053C87.6557 10.176 87.8057 9.66795 88.1046 9.25326C88.4036 8.83856 88.8407 8.51366 89.4173 8.27737C89.9926 8.04107 90.6944 7.92293 91.5226 7.92293C92.2705 7.92293 92.9262 8.02453 93.4909 8.22538C94.0545 8.42741 94.5176 8.71569 94.8804 9.09022C95.2431 9.46474 95.4876 9.91133 95.614 10.4288L93.5949 11.1023C93.5488 10.8258 93.4366 10.5836 93.2582 10.3768C93.0798 10.1701 92.8447 10.0141 92.5505 9.91015C92.2575 9.80737 91.9149 9.7542 91.5238 9.7542C91.0288 9.7542 90.646 9.83572 90.3766 9.9964C90.106 10.1583 89.9714 10.3709 89.9714 10.6356C89.9714 10.8541 90.06 11.0325 90.2384 11.1708C90.4168 11.309 90.6672 11.4212 90.9886 11.5075C91.3111 11.5937 91.6904 11.6835 92.1275 11.7757C92.5883 11.8678 93.0373 11.9742 93.4744 12.0959C93.9115 12.2164 94.3062 12.3747 94.6571 12.5708C95.008 12.7669 95.2868 13.0257 95.4935 13.3482C95.7003 13.6708 95.8043 14.0855 95.8043 14.5923C95.8043 15.1925 95.6436 15.7076 95.321 16.1388C94.9985 16.5713 94.533 16.9021 93.9234 17.1325C93.3137 17.3628 92.5765 17.4786 91.714 17.4786L91.7128 17.481Z" fill="#1a1a2e"/>
<path d="M47.585 34.3877C46.7509 34.3877 46.0031 34.2613 45.3414 34.0108C44.6786 33.7591 44.1186 33.3905 43.6626 32.9049C43.2053 32.4182 42.858 31.818 42.617 31.1044C42.3771 30.3896 42.2578 29.5697 42.2578 28.6434C42.2578 27.7171 42.3807 26.8653 42.6264 26.1221C42.8722 25.379 43.2231 24.7469 43.6803 24.2271C44.1375 23.7072 44.6845 23.3091 45.3249 23.035C45.9641 22.7597 46.6777 22.6226 47.4657 22.6226C48.0706 22.6226 48.6306 22.7053 49.1446 22.8707C49.6585 23.0361 50.1039 23.2736 50.4808 23.582C50.8577 23.8903 51.1519 24.2684 51.3634 24.7138C51.5749 25.1592 51.6859 25.6625 51.6977 26.2226L49.9338 26.668C49.9456 26.1198 49.8334 25.6649 49.5994 25.3046C49.3655 24.9442 49.0536 24.6737 48.6661 24.4905C48.2774 24.3074 47.8603 24.2164 47.4149 24.2164C47.0038 24.2164 46.6044 24.2968 46.2157 24.4563C45.827 24.6169 45.482 24.871 45.1796 25.2195C44.8771 25.568 44.6373 26.017 44.4601 26.5664C44.2828 27.1146 44.1942 27.7785 44.1942 28.556C44.1942 29.5507 44.3396 30.36 44.6314 30.9827C44.922 31.6053 45.3273 32.0625 45.8471 32.3544C46.367 32.6462 46.9636 32.7915 47.637 32.7915C48.3105 32.7915 48.848 32.6604 49.2474 32.3969C49.6467 32.1346 49.9409 31.7825 50.1299 31.3418C50.319 30.9012 50.4241 30.4014 50.4466 29.8414L52.1077 30.1332C52.0959 30.7157 52.0049 31.2674 51.8336 31.7884C51.6623 32.3083 51.3965 32.7632 51.0373 33.1519C50.6781 33.5406 50.2126 33.8442 49.6408 34.0604C49.0701 34.2778 48.3849 34.3865 47.585 34.3865V34.3877Z" fill="#1a1a2e"/>
<path d="M57.4391 34.3877C56.5825 34.3877 55.8229 34.2045 55.1612 33.8383C54.4984 33.4732 53.9821 32.9416 53.6112 32.2433C53.2402 31.5462 53.0547 30.6885 53.0547 29.6713C53.0547 28.654 53.2484 27.7679 53.6371 27.0815C54.0259 26.395 54.5481 25.8811 55.205 25.5385C55.8618 25.1947 56.6014 25.0245 57.4237 25.0245C58.246 25.0245 59.0223 25.2018 59.6851 25.5562C60.3467 25.9106 60.8701 26.4376 61.2529 27.1346C61.6357 27.8317 61.8271 28.7013 61.8271 29.741C61.8271 30.7806 61.6357 31.6301 61.2529 32.3213C60.8701 33.0136 60.3479 33.5311 59.6851 33.8737C59.0223 34.2164 58.2744 34.3877 57.4415 34.3877H57.4391ZM57.5076 32.912C58.0216 32.912 58.4611 32.7927 58.8261 32.5517C59.1912 32.3106 59.4712 31.9574 59.6662 31.4883C59.8599 31.0205 59.9568 30.4593 59.9568 29.8083C59.9568 29.1573 59.854 28.5536 59.6484 28.068C59.4429 27.5824 59.1487 27.2079 58.7659 26.9444C58.3831 26.681 57.9176 26.5498 57.3694 26.5498C56.8779 26.5498 56.4467 26.6668 56.0757 26.9019C55.7047 27.1358 55.4212 27.4844 55.2274 27.9487C55.0325 28.4118 54.9368 28.9754 54.9368 29.6382C54.9368 30.679 55.1648 31.4848 55.622 32.0566C56.0792 32.6285 56.7066 32.9144 57.5064 32.9144L57.5076 32.912Z" fill="#1a1a2e"/>
<path d="M63.2402 34.1644V25.2467H64.8163L64.7135 28.0243H65.0219C65.1696 27.3497 65.3728 26.792 65.6303 26.3525C65.8879 25.9118 66.201 25.581 66.5732 25.3577C66.9441 25.1344 67.3754 25.0234 67.8669 25.0234C68.4151 25.0234 68.8687 25.1545 69.2291 25.418C69.5882 25.6814 69.8635 26.0359 70.0514 26.4813C70.2392 26.9267 70.3397 27.43 70.3515 27.9912H70.6256C70.7744 27.339 70.9824 26.7932 71.2506 26.3525C71.5188 25.9118 71.8531 25.581 72.2525 25.3577C72.6518 25.1344 73.0972 25.0234 73.5887 25.0234C74.0802 25.0234 74.4677 25.1179 74.8221 25.3057C75.1754 25.4948 75.4731 25.7724 75.713 26.1375C75.9528 26.5037 76.1324 26.9574 76.2529 27.5009C76.3734 28.0432 76.4325 28.6694 76.4325 29.3782V34.1632H74.5646V29.6181C74.5646 28.9553 74.5079 28.4059 74.3933 27.9723C74.2787 27.5375 74.1026 27.2114 73.8628 26.9952C73.623 26.7778 73.3205 26.6691 72.9542 26.6691C72.5431 26.6691 72.1804 26.8097 71.8661 27.0897C71.5518 27.3698 71.2978 27.7561 71.1041 28.2476C70.9103 28.7391 70.7898 29.305 70.7449 29.9454V34.1644H68.9125V29.7398C68.9125 29.0533 68.8546 28.4851 68.7411 28.0326C68.6265 27.5812 68.4505 27.241 68.2107 27.013C67.9708 26.7837 67.6684 26.6691 67.3021 26.6691C66.8685 26.6691 66.494 26.8156 66.1797 27.1063C65.8655 27.3981 65.6173 27.7951 65.4342 28.2984C65.2511 28.8017 65.1365 29.3676 65.0916 29.9962V34.1632H63.2414L63.2402 34.1644Z" fill="#1a1a2e"/>
<path d="M78.0859 34.1644V25.2467H79.662L79.5592 28.0243H79.8676C80.0153 27.3497 80.2185 26.792 80.476 26.3525C80.7336 25.9118 81.0467 25.581 81.4189 25.3577C81.7898 25.1344 82.2211 25.0234 82.7126 25.0234C83.2608 25.0234 83.7144 25.1545 84.0748 25.418C84.434 25.6814 84.7092 26.0359 84.8971 26.4813C85.0861 26.9267 85.1854 27.43 85.1972 27.9912H85.4713C85.6201 27.339 85.8281 26.7932 86.0963 26.3525C86.3645 25.9118 86.6988 25.581 87.0982 25.3577C87.4975 25.1344 87.9429 25.0234 88.4344 25.0234C88.9259 25.0234 89.3134 25.1179 89.6678 25.3057C90.0211 25.4948 90.3188 25.7724 90.5587 26.1375C90.7985 26.5037 90.9781 26.9574 91.0986 27.5009C91.2191 28.0432 91.2782 28.6694 91.2782 29.3782V34.1632H89.4103V29.6181C89.4103 28.9553 89.3536 28.4059 89.239 27.9723C89.1244 27.5375 88.9483 27.2114 88.7085 26.9952C88.4687 26.7778 88.1662 26.6691 87.7999 26.6691C87.3888 26.6691 87.0261 26.8097 86.7118 27.0897C86.3976 27.3698 86.1435 27.7561 85.9498 28.2476C85.756 28.7391 85.6355 29.305 85.5906 29.9454V34.1644H83.7582V29.7398C83.7582 29.0533 83.7003 28.4851 83.5868 28.0326C83.4722 27.5812 83.2962 27.241 83.0564 27.013C82.8165 26.7837 82.5141 26.6691 82.1478 26.6691C81.7142 26.6691 81.3397 26.8156 81.0254 27.1063C80.7112 27.3981 80.463 27.7951 80.2799 28.2984C80.0968 28.8017 79.9822 29.3676 79.9373 29.9962V34.1632H78.0871L78.0859 34.1644Z" fill="#1a1a2e"/>
<path d="M95.7425 34.3877C94.7371 34.3877 93.9786 34.0427 93.4646 33.3503C92.9507 32.658 92.6943 31.6159 92.6943 30.2206V25.2478H94.5611V30.0151C94.5611 30.9531 94.704 31.6502 94.9899 32.1074C95.2747 32.5647 95.726 32.7939 96.3427 32.7939C96.6853 32.7939 96.9878 32.7076 97.2501 32.5363C97.5124 32.365 97.7439 32.1252 97.9436 31.8156C98.1433 31.5072 98.3028 31.1445 98.4233 30.7263C98.5426 30.3092 98.6253 29.8497 98.6714 29.3452V25.2467H100.522V34.1644H98.9455L99.0305 31.3348H98.7399C98.591 32.0436 98.3831 32.6249 98.1149 33.0751C97.8467 33.5264 97.5147 33.8584 97.1213 34.0698C96.7279 34.2813 96.2671 34.3865 95.7425 34.3865V34.3877Z" fill="#1a1a2e"/>
<path d="M102.412 34.1644V25.2467H104.022L103.92 28.0243H104.21C104.37 27.3379 104.585 26.7755 104.853 26.3348C105.121 25.8953 105.464 25.5657 105.881 25.3483C106.298 25.1321 106.786 25.0222 107.346 25.0222C108.34 25.0222 109.096 25.3766 109.616 26.0855C110.135 26.7944 110.395 27.8754 110.395 29.3263V34.1632H108.511V29.5153C108.511 28.5205 108.362 27.7915 108.065 27.3284C107.768 26.8653 107.323 26.6337 106.729 26.6337C106.215 26.6337 105.778 26.7967 105.419 27.1228C105.06 27.4489 104.782 27.8742 104.588 28.4C104.395 28.9257 104.286 29.4976 104.263 30.1155V34.1632H102.413L102.412 34.1644Z" fill="#1a1a2e"/>
<path d="M113.029 23.7545C112.63 23.7545 112.327 23.6718 112.122 23.5064C111.916 23.341 111.813 23.0917 111.813 22.7597C111.813 22.4277 111.916 22.1938 112.122 22.0224C112.327 21.8511 112.63 21.7649 113.029 21.7649C113.429 21.7649 113.749 21.8511 113.954 22.0224C114.16 22.1938 114.263 22.4407 114.263 22.7597C114.263 23.0787 114.16 23.3398 113.954 23.5064C113.749 23.6718 113.44 23.7545 113.029 23.7545ZM112.104 34.1644V25.2467H113.954V34.1644H112.104Z" fill="#1a1a2e"/>
<path d="M118.893 34.3534C118.013 34.3534 117.36 34.1136 116.932 33.6327C116.504 33.153 116.289 32.4158 116.289 31.421V26.7731H114.971L115.005 25.2467H115.862C116.158 25.2467 116.381 25.1982 116.529 25.1002C116.677 25.0033 116.769 24.8284 116.803 24.5768L116.974 23.2559H118.087V25.2455H120.537V26.8062H118.087V31.3678C118.087 31.8133 118.19 32.1346 118.396 32.3284C118.601 32.5233 118.904 32.6202 119.304 32.6202C119.522 32.6202 119.741 32.5942 119.964 32.5422C120.186 32.4914 120.4 32.391 120.605 32.2421V34.0427C120.262 34.1573 119.948 34.2364 119.663 34.2825C119.379 34.3286 119.121 34.351 118.893 34.351V34.3534Z" fill="#1a1a2e"/>
<path d="M125.184 37.183C124.726 37.183 124.267 37.1346 123.805 37.0377C123.342 36.9408 122.916 36.7919 122.528 36.5923C122.14 36.3914 121.814 36.1315 121.552 35.8125L122.306 34.338C122.602 34.7267 123.003 35.0209 123.505 35.2206C124.007 35.4203 124.539 35.5207 125.099 35.5207C125.738 35.5207 126.266 35.386 126.683 35.1178C127.1 34.8484 127.417 34.4337 127.633 33.8737C127.85 33.3137 127.965 32.6107 127.975 31.7636L128.13 30.0493H127.804C127.678 30.861 127.482 31.5132 127.213 32.0046C126.945 32.4961 126.617 32.8506 126.228 33.068C125.839 33.2854 125.383 33.3941 124.857 33.3941C124.207 33.3941 123.661 33.231 123.221 32.9061C122.78 32.58 122.45 32.0944 122.228 31.4482C122.005 30.8019 121.893 30.0103 121.893 29.0734V25.249H123.743V28.6611C123.743 29.748 123.889 30.542 124.181 31.0453C124.471 31.5486 124.908 31.8003 125.491 31.8003C125.811 31.8003 126.096 31.7199 126.347 31.5604C126.598 31.4009 126.819 31.1634 127.007 30.8492C127.196 30.5349 127.343 30.1438 127.452 29.6748C127.561 29.2058 127.626 28.6623 127.649 28.0456V25.2502H129.517V31.8522C129.517 32.5611 129.459 33.1991 129.346 33.765C129.232 34.331 129.058 34.8284 128.824 35.2572C128.59 35.6861 128.301 36.0464 127.959 36.3371C127.616 36.6289 127.213 36.8428 126.751 36.9798C126.288 37.1169 125.766 37.1854 125.184 37.1854V37.183Z" fill="#1a1a2e"/>
<path d="M11.7198 19.9253V20.0718C11.4693 20.5704 11.3275 21.1316 11.3275 21.7235V24.8331C11.3275 26.4434 10.0527 27.7761 8.44003 27.7761H-0.00390625V21.9432H8.49674C9.90623 21.9432 11.1243 21.1138 11.7198 19.9241V19.9253Z" fill="#E54FA6"/>
<path d="M20.5526 12.2221V18.0562H14.9418C13.5323 18.0562 12.3142 18.882 11.7188 20.0718V19.9253C11.9669 19.4291 12.1075 18.8679 12.1075 18.2783V15.1652C12.1075 13.5548 13.3846 12.2221 14.9973 12.2221H20.5514H20.5526Z" fill="#E54FA6"/>
<path d="M11.7198 7.70301V7.84715C11.4693 8.34573 11.3275 8.90693 11.3275 9.49884V12.612C11.3275 14.2223 10.0527 15.555 8.44003 15.555H-0.00390625V9.72214H8.49674C9.90623 9.72214 11.1243 8.89275 11.7198 7.70301Z" fill="#E54FA6"/>
<path d="M20.5526 -0.000138419V5.83276H14.9418C13.5323 5.83276 12.3142 6.6586 11.7188 7.84598V7.70184C11.9669 7.20326 12.1075 6.64443 12.1075 6.05487V2.94171C12.1075 1.33137 13.3846 -0.00131989 14.9973 -0.00131989H20.5514L20.5526 -0.000138419Z" fill="#E54FA6"/>
<path d="M11.7198 32.1475V32.294C11.4693 32.7926 11.3275 33.3538 11.3275 33.9457V37.0554C11.3275 38.6681 10.0527 39.9984 8.44003 39.9984H-0.00390625V34.1643H8.49674C9.90623 34.1643 11.1243 33.3349 11.7198 32.1452V32.1475Z" fill="#E54FA6"/>
<path d="M34.997 24.4869V30.321L14.9428 30.2785C13.5333 30.2785 12.3152 31.1043 11.7197 32.2941V32.1476C11.9678 31.649 12.1084 31.0901 12.1084 30.5006V27.391C12.1084 25.7783 13.3856 24.4444 14.9983 24.4444L34.997 24.4869Z" fill="#E54FA6"/>
</g>
<defs>
<clipPath id="clip0_2985_1991">
<rect width="129.519" height="39.9997" fill="#1a1a2e"/>
</clipPath>
</defs>
</svg>
